<svg width="36" height="27" xmlns="http://www.w3.org/2000/svg"><g id="DESKTOP" stroke="none" stroke-width="1" fill="none" fill-rule="evenodd"><g id="HOMEPAGE-Copy" transform="translate(-1767 -561)" fill="#FFF"><g id="Group-5" transform="translate(1767 435)"><g id="Group-6"><path d="M27 129v3h-6v-3h-6v3H9v-3H6v3H3v6H0v6h3v3h3v3h3v3h3v-5.999H9V144h3v3h3v3h6v-2.999h3V144h3v3h-3v6h3v-3h3v-2.999h3V144h3v-6h-3v-6h-3v-3h-3zm-6 9v-3h3v6h-3v-3zm-6-3v6h-3v-6h3zm-3-9v3H9v-3h3zm15 0v3h-3v-3h3z" id="Fill-3"/></g></g></g></g></svg>