<svg width="252" height="52" xmlns="http://www.w3.org/2000/svg"><g id="DESKTOP" stroke="none" stroke-width="1" fill="none" fill-rule="evenodd"><g id="Contact-us" transform="translate(-1491 -895)" fill="#651445"><g id="Group-4" transform="translate(1491 895)"><g id="Group-3"><path d="M230.276 48v4H21.724v-4h208.552zM21.724 44v4H17.38v-4h4.345zm212.897 0v4h-4.345v-4h4.345zM17.379 40v4h-4.345v-4h4.345zm221.587 0v4h-4.345v-4h4.345zM13.034 36v4H8.69v-4h4.344zm230.276 0v4h-4.344v-4h4.344zM8.69 32v4H4.345v-4H8.69zm238.965 0v4h-4.345v-4h4.345zM4.345 20v12H0V20h4.345zM252 20v12h-4.345V20H252zM8.69 16v4H4.345v-4H8.69zm238.965 0v4h-4.345v-4h4.345zm-234.62-4v4H8.69v-4h4.344zm230.275 0v4h-4.344v-4h4.344zM17.38 8v4h-4.346V8h4.345zm221.586 0v4h-4.345V8h4.345zM21.724 4v4H17.38V4h4.345zm212.897 0v4h-4.345V4h4.345zm-4.345-4v4H21.724V0h208.552z" id="Combined-Shape"/><path d="M22 4h209v4h4v4h4v4h5v4h4v12h-4v4h-5v4h-4v4h-4v4H22v-4h-5v-4h-4v-4H9v-4H4V20h5v-4h4v-4h4V8h5V4z" id="Combined-Shape"/></g></g></g></g></svg>