<?xml version="1.0" encoding="UTF-8"?>
<svg width="16px" height="28px" viewBox="0 0 16 28" version="1.1" xmlns="http://www.w3.org/2000/svg" xmlns:xlink="http://www.w3.org/1999/xlink">
    <!-- Generator: Sketch 57.1 (83088) - https://sketch.com -->
    <title>Combined Shape</title>
    <desc>Created with Sketch.</desc>
    <g id="DESKTOP" stroke="none" stroke-width="1" fill="none" fill-rule="evenodd">
        <g id="FAQ" transform="translate(-1213.000000, -371.000000)" fill="#FFFFFF">
            <g id="FAQ-/-Collapse-Copy" transform="translate(688.000000, 351.000000)">
                <path d="M541,44 L541,48 L537,48 L537,44 L541,44 Z M537,40 L537,44 L533,44 L533,40 L537,40 Z M533,36 L533,40 L529,40 L529,36 L533,36 Z M529,32 L529,36 L525,36 L525,32 L529,32 Z M533,28 L533,32 L529,32 L529,28 L533,28 Z M537,24 L537,28 L533,28 L533,24 L537,24 Z M541,20 L541,24 L537,24 L537,20 L541,20 Z" id="Combined-Shape" transform="translate(533.000000, 34.000000) rotate(-180.000000) translate(-533.000000, -34.000000) "></path>
            </g>
        </g>
    </g>
</svg>